<svg width="32" height="32" viewBox="0 0 32 32" fill="none" xmlns="http://www.w3.org/2000/svg">
<path d="M27.0721 6.42125C26.4324 5.76897 25.6728 5.25153 24.8368 4.8985C24.0008 4.54547 23.1047 4.36377 22.1998 4.36377C21.2948 4.36377 20.3988 4.54547 19.5628 4.8985C18.7267 5.25153 17.9672 5.76897 17.3274 6.42125L15.9998 7.77433L14.6721 6.42125C13.3798 5.1043 11.6272 4.36445 9.79972 4.36445C7.97224 4.36445 6.2196 5.1043 4.92737 6.42125C3.63515 7.73819 2.90918 9.52435 2.90918 11.3868C2.90918 13.2492 3.63515 15.0354 4.92737 16.3523L6.25506 17.7054L15.9998 27.6365L25.7445 17.7054L27.0721 16.3523C27.7122 15.7004 28.2199 14.9263 28.5663 14.0743C28.9127 13.2223 29.091 12.309 29.091 11.3868C29.091 10.4645 28.9127 9.55133 28.5663 8.69933C28.2199 7.84732 27.7122 7.07322 27.0721 6.42125Z" stroke="white" stroke-width="1.5" stroke-linecap="round" stroke-linejoin="round"/>
</svg>
