<svg width="32" height="32" viewBox="0 0 32 32" fill="none" xmlns="http://www.w3.org/2000/svg">
<path d="M24.9121 4.54199H7.08804C5.68176 4.54199 4.54175 5.68201 4.54175 7.08829V24.9124C4.54175 26.3186 5.68176 27.4587 7.08804 27.4587H24.9121C26.3184 27.4587 27.4584 26.3186 27.4584 24.9124V7.08829C27.4584 5.68201 26.3184 4.54199 24.9121 4.54199Z" stroke="white" stroke-width="1.5" stroke-linecap="round" stroke-linejoin="round"/>
<path d="M11.5438 13.4542C12.5985 13.4542 13.4535 12.5992 13.4535 11.5445C13.4535 10.4898 12.5985 9.63477 11.5438 9.63477C10.489 9.63477 9.63403 10.4898 9.63403 11.5445C9.63403 12.5992 10.489 13.4542 11.5438 13.4542Z" stroke="white" stroke-width="1.5" stroke-linecap="round" stroke-linejoin="round"/>
<path d="M27.4583 19.8198L21.0925 13.4541L7.08789 27.4587" stroke="white" stroke-width="1.5" stroke-linecap="round" stroke-linejoin="round"/>
</svg>
