<svg xmlns="http://www.w3.org/2000/svg" width="1004" height="166" viewBox="0 0 1004 166" version="1.1"><path d="M 604 10.882 C 602.075 11.222, 608.570 11.500, 618.433 11.500 C 628.296 11.500, 635.046 11.216, 633.433 10.868 C 629.681 10.060, 608.595 10.070, 604 10.882 M 466 11.976 C 472.325 12.415, 479.483 13.505, 481.906 14.398 C 484.329 15.291, 486.491 15.842, 486.710 15.623 C 486.929 15.404, 484.947 14.448, 482.304 13.498 C 479.083 12.340, 473.710 11.673, 466 11.474 L 454.500 11.177 466 11.976 M 139.994 12.934 C 135.450 14.316, 131.543 16.773, 128.502 20.161 L 125.504 23.500 129.002 20.362 C 134.291 15.618, 138.794 13.748, 146.212 13.217 C 152.069 12.798, 153.655 13.086, 158.471 15.442 C 166.118 19.184, 169.500 24.874, 169.500 34 C 169.500 47.818, 161.224 57.321, 149.082 57.444 C 146.012 57.475, 142.104 57.187, 140.397 56.804 L 137.294 56.109 132.054 75.804 C 124.701 103.443, 121.610 112.634, 117.274 119.760 C 106.389 137.646, 94.095 145.408, 72.500 148.029 C 52.374 150.471, 33.309 145.945, 22.460 136.148 C 20.239 134.142, 20.516 134.525, 23.078 137 C 31.663 145.296, 46.878 154.029, 56.453 156.156 C 65.646 158.199, 89.967 157.862, 97.500 155.587 C 113.499 150.757, 124.939 140.991, 132.544 125.671 C 135.946 118.818, 138.891 109.992, 143.956 91.467 L 150.783 66.500 158.322 66.855 C 164.696 67.155, 166.698 66.827, 171.269 64.734 C 177.609 61.832, 180.216 58.223, 182.547 49.123 C 186.058 35.418, 179.293 25.412, 159.464 14.981 C 153.627 11.911, 145.996 11.109, 139.994 12.934 M 518 13.125 C 516.075 13.692, 514.105 14.539, 513.622 15.006 C 513.139 15.474, 515.090 15.168, 517.957 14.328 C 521.965 13.153, 524.104 13.037, 527.210 13.825 C 529.433 14.390, 530.857 14.458, 530.376 13.977 C 528.919 12.522, 521.724 12.027, 518 13.125 M 590.984 13.873 C 587.950 14.844, 584.575 16.204, 583.484 16.895 C 581.513 18.143, 581.513 18.146, 583.500 17.428 C 584.600 17.031, 588.875 15.671, 593 14.406 C 597.125 13.142, 599.600 12.107, 598.500 12.107 C 597.400 12.107, 594.018 12.902, 590.984 13.873 M 32.342 13.765 C 31.705 14.169, 41.380 14.383, 53.842 14.241 C 90.873 13.817, 94.435 13.419, 63 13.219 C 46.775 13.115, 32.979 13.361, 32.342 13.765 M 186.655 13.750 C 186.401 14.162, 195.782 14.500, 207.502 14.500 C 219.223 14.500, 228.292 14.169, 227.656 13.765 C 226.130 12.796, 187.253 12.781, 186.655 13.750 M 280.017 14.286 C 278.651 14.977, 277.117 16.727, 276.608 18.174 C 275.841 20.354, 276.224 21.622, 278.841 25.574 C 280.579 28.197, 282 29.952, 282 29.475 C 282 28.998, 280.823 26.909, 279.384 24.833 C 276.188 20.220, 276.710 16.441, 280.756 14.903 C 282.349 14.297, 290.496 14.004, 300.637 14.188 C 310.087 14.360, 317.297 14.169, 316.659 13.765 C 314.587 12.452, 282.748 12.904, 280.017 14.286 M 365.832 13.971 C 394.370 14.469, 396.247 14.615, 397.582 16.441 C 398.362 17.509, 399 18.712, 399 19.114 C 399 20.465, 393.864 25.967, 391.053 27.628 C 389.523 28.531, 387.580 30.448, 386.735 31.886 C 385.463 34.051, 363.833 109.393, 359.936 125.232 C 358.861 129.602, 358.971 130.346, 361.386 134.964 C 364.649 141.204, 364.647 142.346, 361.365 144.927 C 358.834 146.918, 357.561 147, 329.171 147 L 299.611 147 303.056 149.425 C 304.950 150.759, 307.831 152.897, 309.458 154.175 C 312.376 156.468, 312.812 156.504, 341.031 156.792 C 358.400 156.970, 370.678 156.693, 372.271 156.087 C 373.714 155.538, 375.679 153.893, 376.637 152.431 C 378.333 149.844, 378.305 149.642, 375.577 144.790 C 373.378 140.877, 372.902 139.016, 373.363 136.132 C 373.939 132.529, 392.628 65.382, 397.518 49.347 C 399.817 41.807, 400.446 40.812, 405.885 36.100 C 413.034 29.906, 413.858 27.662, 410.185 24.380 C 408.708 23.060, 406.553 21.085, 405.395 19.990 C 404.237 18.896, 402.862 18, 402.339 18 C 401.816 18, 399.864 16.875, 398 15.500 L 394.611 13 365.056 13.221 L 335.500 13.442 365.832 13.971 M 701 14.605 C 699.625 15.448, 699.400 15.770, 700.500 15.319 C 701.600 14.869, 721.850 14.266, 745.500 13.979 L 788.500 13.458 746 13.264 C 709.329 13.097, 703.157 13.281, 701 14.605 M 852.454 15.196 L 850.500 17.500 852.643 15.692 C 854.587 14.052, 856.702 13.912, 875.376 14.192 L 895.966 14.500 899.187 17.723 C 901.205 19.743, 908.454 33.001, 918.593 53.217 L 934.778 85.486 936.777 78.993 C 937.876 75.422, 938.437 72.275, 938.024 72 C 937.611 71.725, 932.473 61.955, 926.607 50.288 C 916.281 29.750, 915.738 28.908, 909.532 23.788 C 896.430 12.979, 898.263 13.541, 874.954 13.196 C 854.560 12.893, 854.394 12.908, 852.454 15.196 M 947.352 13.993 C 946.171 14.470, 944.919 15.322, 944.569 15.888 C 944.220 16.453, 945.186 16.262, 946.717 15.464 C 950.923 13.270, 982.217 13.359, 984.429 15.571 C 987.446 18.589, 986.320 21.525, 980.067 26.942 C 973.012 33.054, 974.822 28.080, 958.983 84.890 C 952.329 108.755, 946.044 130.494, 945.016 133.200 C 940.915 143.994, 934.247 148.588, 923.848 147.782 C 920.907 147.554, 917.600 146.989, 916.500 146.526 C 915.400 146.063, 916.750 147.229, 919.500 149.117 C 922.250 151.004, 926 153.663, 927.834 155.024 C 930.602 157.080, 932.298 157.499, 937.834 157.492 C 950.098 157.478, 956.174 151.834, 960.972 136 C 962.055 132.425, 968.139 110.825, 974.491 88 C 980.843 65.175, 986.538 45.258, 987.146 43.740 C 987.753 42.223, 990.918 38.670, 994.178 35.846 C 999.317 31.394, 1000.065 30.302, 999.803 27.637 C 999.586 25.438, 998.679 24.126, 996.615 23.031 C 995.028 22.189, 992.686 20.488, 991.410 19.250 C 990.135 18.012, 988.620 17, 988.045 17 C 987.470 17, 986.100 16.100, 985 15 C 983.154 13.154, 981.714 13.005, 966.250 13.063 C 957.038 13.098, 948.534 13.517, 947.352 13.993 M 94.369 15.710 C 97.125 18.969, 95.790 22.432, 90.226 26.454 C 87.627 28.333, 84.946 30.779, 84.270 31.890 C 81.647 36.195, 63.899 100.479, 63.394 107.500 C 62.602 118.519, 66.404 123.117, 76.709 123.600 C 79.894 123.750, 81.375 123.630, 80 123.335 C 74.477 122.149, 74.719 120.440, 86.137 80 C 97.643 39.246, 97.038 40.774, 103.585 35.937 C 106.548 33.748, 109.242 30.884, 109.571 29.572 C 110.316 26.607, 108.655 23.343, 105.969 22.490 C 104.851 22.135, 102.846 20.755, 101.513 19.422 C 100.181 18.090, 98.543 17, 97.874 17 C 97.205 17, 95.722 16.212, 94.579 15.250 C 92.509 13.507, 92.508 13.509, 94.369 15.710 M 331.655 15.829 C 330.745 16.835, 330 18.845, 330 20.297 C 330 22.394, 329.640 22.803, 328.250 22.284 C 327.288 21.925, 325.945 20.861, 325.266 19.919 C 324.587 18.977, 322.760 17.763, 321.206 17.222 C 318.517 16.284, 318.400 16.367, 318.778 18.943 C 319.113 21.221, 318.222 22.476, 313.155 26.866 C 306.001 33.063, 307.822 28.080, 292.094 84.500 C 285.501 108.150, 279.390 129.525, 278.514 132 C 274.387 143.666, 267.607 148.526, 256.450 147.816 C 252.903 147.590, 250 147.466, 250 147.539 C 250 147.613, 253.207 149.885, 257.126 152.587 C 263.903 157.259, 264.576 157.500, 270.876 157.500 C 284.682 157.500, 289.759 151.340, 296.840 126 C 299.069 118.025, 305.023 96.650, 310.071 78.500 C 315.120 60.350, 319.869 44.285, 320.625 42.800 C 321.381 41.315, 324.063 38.390, 326.584 36.300 C 332.737 31.199, 334.259 28.259, 332.443 24.979 C 330.352 21.202, 330.672 17.343, 333.223 15.557 C 334.445 14.701, 334.965 14, 334.377 14 C 333.790 14, 332.565 14.823, 331.655 15.829 M 232.500 17.970 C 234.150 19.709, 242.746 35.577, 251.601 53.233 L 267.703 85.336 269.851 78.974 C 272.166 72.119, 272.438 70.612, 271.221 71.364 C 270.792 71.629, 265.625 62.256, 259.738 50.537 C 249.808 30.767, 248.618 28.872, 243.267 24.304 C 240.095 21.596, 235.700 18.352, 233.500 17.095 L 229.500 14.810 232.500 17.970 M 533.729 18.159 C 534.619 19.942, 534.932 22.155, 534.528 23.797 C 532.576 31.721, 520.507 63.136, 518.831 64.653 C 517.756 65.626, 514.767 66.674, 512.188 66.983 L 507.500 67.545 511.884 70.522 C 514.296 72.160, 517.446 74.285, 518.884 75.245 C 520.323 76.204, 522.760 76.992, 524.300 76.995 C 527.506 77.001, 532.556 74.649, 533.370 72.771 C 533.673 72.072, 533.700 72.850, 533.430 74.500 C 533.160 76.150, 534.342 73.900, 536.056 69.500 C 537.770 65.100, 539.230 60.746, 539.301 59.823 C 539.371 58.901, 539.708 58.320, 540.049 58.531 C 540.391 58.742, 541.412 57.359, 542.319 55.457 C 544.286 51.332, 543.723 50.864, 541.468 54.750 C 539.657 57.872, 539.756 57.545, 545.180 42.500 C 548.305 33.833, 548.968 30.879, 548.306 28.573 C 547.517 25.821, 543.283 22.084, 535.382 17.165 L 532.265 15.224 533.729 18.159 M 506.463 19.684 L 501.638 23.368 495.819 20.145 C 492.618 18.372, 490 17.097, 490 17.311 C 490 17.972, 500.069 24, 501.173 24 C 501.744 24, 504.077 22.570, 506.356 20.822 C 511.687 16.734, 512.522 16, 511.844 16 C 511.538 16, 509.116 17.658, 506.463 19.684 M 806 20.064 C 818.213 26.788, 823.472 35.341, 822.819 47.420 C 821.968 63.168, 813.031 73.731, 796.074 79.032 L 790.648 80.729 794.349 81.950 C 801.915 84.447, 807 91.005, 807 98.265 C 807 100.096, 806.091 105.759, 804.980 110.850 C 803.625 117.060, 803.269 120.658, 803.900 121.785 C 804.417 122.709, 807.013 123.924, 809.670 124.486 C 813.613 125.320, 814.561 125.939, 814.833 127.855 C 815.749 134.319, 810.201 141.288, 800.762 145.530 C 792.902 149.062, 777.649 150.097, 769.500 147.650 C 766.604 146.781, 765.297 146.644, 766.395 147.325 C 767.437 147.971, 770.306 150.002, 772.769 151.838 C 779.734 157.029, 784.207 158.304, 795.500 158.319 C 806.485 158.334, 812.524 156.768, 819.500 152.094 C 823.302 149.547, 823.646 149.491, 826.457 150.957 C 828.083 151.806, 830.179 153.400, 831.116 154.500 C 832.664 156.318, 834.273 156.529, 848.781 156.817 C 861.272 157.065, 865.525 156.808, 868.336 155.633 C 873.428 153.505, 874.056 150.175, 870.391 144.723 C 868.368 141.714, 867.581 139.350, 867.651 136.500 C 867.754 132.350, 879.509 90.158, 880.986 88.638 C 881.750 87.852, 872.160 66.173, 871 66.065 C 870.102 65.981, 853.600 125.013, 853.600 128.310 C 853.600 130.147, 854.754 133.215, 856.300 135.491 C 859.521 140.231, 859.675 142.325, 857 145 C 855.152 146.848, 853.667 147, 837.500 147 C 821.188 147, 819.861 146.861, 817.949 144.949 C 815.458 142.458, 816.070 139.380, 819.627 136.500 C 820.986 135.400, 823.559 133.150, 825.345 131.500 C 827.131 129.850, 827.447 129.477, 826.046 130.671 L 823.500 132.841 821.703 130.421 C 820.715 129.089, 819.204 128, 818.346 128 C 817.488 128, 816.999 127.437, 817.259 126.750 C 817.519 126.063, 818.530 121.353, 819.505 116.285 C 821.875 103.980, 820.780 99.620, 813.852 93.778 C 808.807 89.524, 807.931 88, 810.529 88 C 813.789 88, 823.778 81.965, 827.876 77.519 C 834.475 70.360, 836.481 65.109, 836.478 55 C 836.475 43.066, 833.547 38.177, 820.500 28.325 C 815.247 24.357, 802.916 16.995, 801.563 17.018 C 800.978 17.028, 802.975 18.399, 806 20.064 M 574.716 20.851 C 572.085 22.400, 569.385 24.240, 568.716 24.940 C 568.047 25.640, 569.750 24.873, 572.500 23.236 C 575.250 21.600, 578.400 19.766, 579.500 19.161 C 580.600 18.556, 581.050 18.055, 580.500 18.047 C 579.950 18.040, 577.347 19.302, 574.716 20.851 M 655 19.646 C 668.637 29.256, 674.737 45.451, 672.221 65.368 C 667.940 99.264, 649.802 127.133, 623.624 140.036 C 618.056 142.781, 609.962 145.915, 605.638 147.001 C 590.061 150.913, 571.587 150.585, 558.490 146.164 C 555.471 145.144, 553 144.406, 553 144.522 C 553 145.708, 568.651 154.744, 573.365 156.280 C 581.050 158.784, 601.753 159.755, 611.674 158.078 C 628.676 155.203, 644.014 147.668, 656.129 136.240 C 665.086 127.790, 670.814 119.771, 676.566 107.629 C 683.426 93.147, 686.271 81.137, 686.310 66.500 C 686.345 53.065, 684.714 46.805, 679.024 38.534 C 675.954 34.073, 664.194 24.467, 656.500 20.136 C 654.300 18.898, 653.625 18.677, 655 19.646 M 418.165 29.750 L 411.342 36.500 417.921 30.561 C 421.540 27.294, 424.928 24.257, 425.450 23.811 C 425.972 23.365, 426.082 23, 425.694 23 C 425.305 23, 421.917 26.038, 418.165 29.750 M 556.966 34.750 L 551.500 40.500 557.250 35.034 C 562.592 29.956, 563.458 29, 562.716 29 C 562.560 29, 559.972 31.587, 556.966 34.750 M 608.967 32.250 C 600.383 36.584, 594.024 49.270, 585.466 79.133 C 577.549 106.756, 575.343 121.269, 578.130 127.385 C 578.751 128.749, 580.558 130.403, 582.146 131.061 C 585.602 132.492, 591.842 131.668, 593.684 129.537 C 594.412 128.696, 594.466 128.456, 593.804 129.004 C 591.634 130.800, 591 130.061, 591.009 125.750 C 591.020 120.432, 594.544 104.826, 599.953 86.138 C 607.075 61.529, 613.024 48.606, 619.810 42.997 L 623.500 39.947 624.206 42.724 C 624.598 44.266, 624.672 43.323, 624.373 40.603 C 623.741 34.871, 622.493 32.546, 619.257 31.071 C 615.841 29.515, 613.957 29.731, 608.967 32.250 M 747.124 51.479 C 744.856 60.543, 743 68.464, 743 69.082 C 743 69.852, 745.660 70.094, 751.465 69.853 C 757.955 69.582, 760.288 69.093, 761.468 67.754 C 762.315 66.793, 762.466 66.456, 761.804 67.004 C 759.268 69.103, 759.326 67.638, 762.242 56 C 765.212 44.145, 765.283 44, 768.124 44 C 770.405 44, 771.024 44.465, 771.116 46.250 C 771.204 47.956, 771.343 48.075, 771.691 46.742 C 772.521 43.562, 769.978 38.040, 766.966 36.483 C 765.306 35.624, 761.396 35, 757.674 35 L 751.248 35 747.124 51.479 M 470.500 37.837 C 461.267 43.468, 452.400 60.116, 446.394 83.095 C 443.010 96.043, 442.478 111.570, 445.243 116.662 C 448.821 123.249, 455.607 126.155, 462.722 124.145 L 466.500 123.078 462.323 123.615 L 458.145 124.151 457.441 119.452 C 454.880 102.376, 466.412 65.187, 478.251 52.344 C 482.476 47.760, 486.680 45, 489.436 45 C 490.309 45, 492.277 47.587, 494 51 C 495.666 54.300, 497.272 57, 497.569 57 C 498.736 57, 490.424 42.532, 487.437 39.364 C 484.597 36.354, 483.698 36, 478.882 36.004 C 475.433 36.006, 472.423 36.664, 470.500 37.837 M 398.624 59.467 C 397.181 63.072, 396.015 66.579, 396.034 67.261 C 396.053 67.942, 397.390 65.149, 399.005 61.054 C 400.620 56.959, 401.786 53.452, 401.595 53.261 C 401.403 53.070, 400.067 55.863, 398.624 59.467 M 195.058 95.706 C 190.414 112.038, 186.656 126.843, 186.706 128.604 C 186.756 130.366, 187.967 133.530, 189.398 135.635 C 192.522 140.232, 192.658 142.342, 190 145 C 188.155 146.845, 186.667 147, 170.806 147 L 153.611 147 157 149.500 C 158.864 150.875, 160.731 152, 161.149 152 C 161.567 152, 163.034 153.125, 164.409 154.500 C 166.862 156.953, 167.204 157, 182.487 157 C 199.992 157, 204.473 155.948, 205.569 151.581 C 206.043 149.692, 205.405 147.817, 203.105 144.344 C 201.397 141.766, 199.995 138.722, 199.988 137.579 C 199.973 134.820, 213.195 88.586, 214.111 88.196 C 214.844 87.883, 204.897 66.080, 204 66.035 C 203.725 66.021, 199.701 79.373, 195.058 95.706 M 393.505 76.332 C 392.588 80.454, 392.038 84.877, 392.283 86.163 C 392.655 88.117, 392.752 88.008, 392.879 85.500 C 392.962 83.850, 393.708 79.622, 394.537 76.105 C 395.366 72.588, 395.848 69.515, 395.608 69.275 C 395.368 69.035, 394.422 72.211, 393.505 76.332 M 529.681 89.510 C 529.318 91.704, 529.072 94.850, 529.133 96.500 C 529.194 98.150, 529.638 96.800, 530.119 93.500 C 531.099 86.789, 530.712 83.266, 529.681 89.510 M 391.310 94.500 C 391.315 97.800, 391.502 99.029, 391.725 97.232 C 391.947 95.435, 391.943 92.735, 391.715 91.232 C 391.486 89.729, 391.304 91.200, 391.310 94.500 M 736.123 93.250 C 735.556 95.037, 733.221 103.411, 730.934 111.857 C 726.301 128.973, 726.303 129.009, 732.454 135.818 C 736.538 140.338, 736.936 143.231, 733.777 145.443 C 731.880 146.772, 726.953 147, 700.124 147 L 668.694 147 671 149 C 672.268 150.100, 673.621 151, 674.007 151 C 674.393 151, 675.900 152.105, 677.357 153.455 C 678.814 154.806, 681.468 156.183, 683.253 156.516 C 685.039 156.849, 699.841 156.981, 716.147 156.811 C 743.650 156.522, 745.946 156.362, 747.897 154.595 C 751.064 151.727, 750.507 148.579, 746.052 144.168 C 743.880 142.018, 741.820 139.130, 741.474 137.751 C 741.072 136.151, 742.600 128.947, 745.689 117.871 C 750.451 100.801, 750.585 100.494, 753.409 100.170 C 755.009 99.986, 756.700 100.429, 757.224 101.170 C 757.847 102.050, 757.980 101.169, 757.616 98.569 C 757.314 96.407, 756.440 94.012, 755.674 93.246 C 753.897 91.469, 747.819 90.054, 741.828 90.024 C 737.427 90.001, 737.095 90.189, 736.123 93.250 M 497.908 100.963 C 504.056 101.958, 509.495 107.757, 508.588 112.350 C 506.519 122.824, 487.468 140.114, 472.386 145.206 C 456.636 150.523, 435.602 149.354, 421.741 142.392 C 415.315 139.164, 415.639 139.550, 424.360 145.518 C 438.358 155.095, 451.194 158.650, 468.459 157.732 C 485.065 156.848, 497.672 151.078, 510.684 138.406 C 515.568 133.649, 518.816 129.459, 520.544 125.685 C 523.009 120.300, 523.051 119.915, 521.515 116.778 C 520.632 114.975, 517.567 111.800, 514.705 109.721 C 503.699 101.731, 500.562 100.034, 497 100.143 C 493.692 100.244, 493.742 100.289, 497.908 100.963 M 483.978 109.750 L 475.500 118.500 484.250 110.022 C 489.063 105.359, 493 101.422, 493 101.272 C 493 100.544, 491.852 101.623, 483.978 109.750 M 529.118 110.568 C 528.995 113.768, 531.811 124.522, 532.573 123.761 C 532.813 123.521, 532.524 121.934, 531.932 120.235 C 531.340 118.536, 530.491 114.975, 530.045 112.323 C 529.440 108.717, 529.206 108.274, 529.118 110.568 M 605 112.642 C 605 113.179, 603.424 116.234, 601.498 119.433 C 599.573 122.631, 598.597 124.750, 599.330 124.141 C 601.257 122.542, 606.308 112.974, 605.599 112.266 C 605.270 111.936, 605 112.106, 605 112.642 M 309.505 120.618 C 308.419 124.631, 306.494 128.698, 304.648 130.883 L 301.590 134.500 304.835 131.525 C 307.114 129.435, 308.696 126.520, 310.153 121.722 C 311.294 117.966, 312.020 114.686, 311.766 114.433 C 311.512 114.179, 310.495 116.962, 309.505 120.618 M 752.320 126 C 752.320 129.575, 752.502 131.037, 752.723 129.250 C 752.945 127.463, 752.945 124.537, 752.723 122.750 C 752.502 120.963, 752.320 122.425, 752.320 126 M 669.825 132.831 C 663.370 137.897, 662.625 138.915, 668.058 135.246 C 671.890 132.658, 676.152 128.803, 674.872 129.081 C 674.668 129.125, 672.396 130.813, 669.825 132.831" stroke="none" fill="#fcca68" fill-rule="evenodd"/><path d="M 602.047 12.078 C 569.910 17.758, 545.123 40.500, 534.555 74 C 524.639 105.434, 529.270 128.412, 548.014 140.779 C 558.507 147.702, 572.342 150.705, 588.638 149.597 C 601.422 148.727, 611.781 145.873, 624 139.854 C 633.280 135.282, 635.603 133.567, 644 125.091 C 662.299 106.617, 672.268 82.915, 672.428 57.500 C 672.542 39.505, 667.451 28.518, 655.178 20.273 C 645.462 13.745, 638.092 11.810, 621.500 11.433 C 613.800 11.258, 605.046 11.548, 602.047 12.078 M 448.500 13.551 C 426.792 18.985, 409.145 35.313, 400.019 58.411 C 387.836 89.244, 390.234 115.491, 406.728 131.836 C 425.615 150.553, 459.883 154.175, 483.467 139.947 C 495.150 132.898, 507.137 119.696, 508.607 112.256 C 509.170 109.406, 508.761 108.526, 505.241 105.006 C 501.982 101.747, 500.532 101, 497.462 101 C 494.048 101, 492.751 101.910, 483.837 110.559 C 472.590 121.474, 467.404 124.352, 458.826 124.441 C 452.340 124.508, 448.805 122.507, 445.500 116.895 C 442.436 111.694, 442.832 96.724, 446.394 83.095 C 451.137 64.947, 457.623 50.744, 464.790 42.811 C 469.508 37.588, 472.841 36, 479.082 36 C 483.656 36, 484.631 36.390, 487.399 39.324 C 489.123 41.152, 492.681 46.664, 495.307 51.574 C 497.933 56.483, 500.625 61.196, 501.291 62.046 C 505.465 67.382, 513.945 68.720, 518.431 64.750 C 520.231 63.157, 522.928 57.100, 527.668 44 C 536.426 19.799, 536.438 16.272, 527.763 13.936 C 521.918 12.362, 515.182 14.292, 507.959 19.609 C 504.679 22.024, 501.554 24, 501.017 24 C 500.479 24, 497.520 22.389, 494.441 20.419 C 485.291 14.566, 479.030 12.801, 466 12.402 C 458.043 12.158, 452.652 12.512, 448.500 13.551 M 139.994 13.934 C 132.735 16.142, 126.924 21.309, 122.961 29.077 C 121.832 31.289, 116.426 48.714, 110.946 67.799 C 100.358 104.677, 96.206 115.253, 90.703 119.361 C 81.511 126.224, 68.605 125.027, 64.195 116.904 C 61.587 112.099, 63.482 101.943, 73.468 67.205 C 78.732 48.893, 83.593 33.001, 84.270 31.890 C 84.946 30.779, 87.627 28.333, 90.226 26.454 C 95.699 22.498, 97.143 18.921, 94.464 15.960 C 92.779 14.098, 91.219 14, 63.410 14 C 47.026 14, 33.013 14.425, 31.593 14.965 C 28.022 16.322, 27.412 19.927, 29.921 24.844 C 31.064 27.086, 31.996 30.401, 31.990 32.210 C 31.985 34.020, 28.158 48.971, 23.487 65.437 C 18.816 81.902, 14.486 98.288, 13.866 101.851 C 12.415 110.179, 13.309 120.646, 15.989 126.718 C 23.011 142.630, 45.890 151.258, 72.500 148.029 C 94.095 145.408, 106.389 137.646, 117.274 119.760 C 121.610 112.634, 124.701 103.443, 132.054 75.804 L 137.294 56.109 140.397 56.804 C 157.248 60.582, 169.500 50.981, 169.500 34 C 169.500 25.056, 166.122 19.237, 158.818 15.597 C 153.462 12.927, 145.589 12.232, 139.994 13.934 M 185.626 15.516 C 183.335 17.807, 183.600 21.358, 186.550 27.933 L 189.101 33.616 175.951 80.058 C 168.719 105.601, 162.397 127.257, 161.902 128.182 C 161.407 129.107, 158.864 131.582, 156.251 133.682 C 153.638 135.782, 151.169 137.950, 150.765 138.500 C 149.294 140.503, 149.986 144.922, 151.934 145.965 C 153.051 146.562, 161.083 147, 170.934 147 C 186.667 147, 188.156 146.844, 190 145 C 192.658 142.342, 192.522 140.232, 189.398 135.635 C 187.967 133.530, 186.756 130.366, 186.706 128.604 C 186.613 125.333, 203.050 66.014, 204.052 66.005 C 204.355 66.002, 205.544 68.138, 206.694 70.750 C 214.208 87.817, 237.643 135.108, 240.549 139.067 C 244.945 145.056, 250.697 148, 258 148 C 268.111 148, 274.661 142.892, 278.514 132 C 279.390 129.525, 285.501 108.150, 292.094 84.500 C 307.808 28.133, 306.015 33.051, 313.067 26.942 C 319.320 21.525, 320.446 18.589, 317.429 15.571 C 316.128 14.271, 313.036 14, 299.494 14 C 290.494 14, 281.988 14.434, 280.593 14.965 C 276.651 16.463, 276.242 20.299, 279.521 25.030 C 281.348 27.666, 282.265 30.261, 282.251 32.751 C 282.230 36.159, 274.993 63.027, 269.812 78.931 L 267.716 85.363 251.562 53.155 C 241.445 32.982, 234.205 19.742, 232.187 17.723 L 228.966 14.500 208.109 14.195 C 189.917 13.929, 187.045 14.098, 185.626 15.516 M 333.223 15.557 C 330.452 17.497, 330.380 20.865, 333 26 C 334.100 28.156, 335 30.832, 335 31.946 C 335 35.057, 309.036 126.202, 307.443 128.683 C 306.672 129.884, 304.344 132.109, 302.271 133.626 C 300.197 135.144, 297.938 137.060, 297.250 137.884 C 295.321 140.196, 295.709 144.774, 297.934 145.965 C 299.142 146.611, 310.924 147, 329.299 147 C 357.560 147, 358.835 146.918, 361.365 144.927 C 364.647 142.346, 364.649 141.204, 361.386 134.964 C 358.971 130.346, 358.861 129.602, 359.936 125.232 C 363.833 109.393, 385.463 34.051, 386.735 31.886 C 387.580 30.448, 389.523 28.531, 391.053 27.628 C 394.047 25.859, 399 20.434, 399 18.923 C 399 18.415, 398.100 17.100, 397 16 C 395.090 14.090, 393.667 14, 365.223 14 C 339.890 14, 335.113 14.232, 333.223 15.557 M 701.228 15.230 C 697.958 16.806, 697.508 20.115, 699.921 24.844 C 701.064 27.086, 702 30.508, 702 32.449 C 702 36.115, 678.125 122.040, 675.524 127.735 C 674.712 129.514, 671.786 132.594, 669.023 134.579 C 665.012 137.461, 664 138.762, 664 141.037 C 664 146.810, 665.150 147, 700 147 C 726.941 147, 731.880 146.772, 733.777 145.443 C 736.936 143.231, 736.538 140.338, 732.454 135.818 C 726.303 129.009, 726.301 128.973, 730.934 111.857 C 733.221 103.411, 735.576 94.977, 736.168 93.115 L 737.244 89.730 744.688 90.293 C 757.894 91.292, 759.508 94.189, 755.551 109.800 C 752.722 120.957, 752.288 130.360, 754.370 135.343 C 756.367 140.124, 763.541 145.811, 769.908 147.662 C 778.399 150.130, 792.716 149.137, 800.772 145.522 C 810.200 141.291, 815.749 134.319, 814.833 127.855 C 814.561 125.939, 813.613 125.320, 809.670 124.486 C 807.013 123.924, 804.417 122.709, 803.900 121.785 C 803.269 120.658, 803.625 117.060, 804.980 110.850 C 806.091 105.759, 807 100.096, 807 98.265 C 807 91.005, 801.915 84.447, 794.349 81.950 L 790.648 80.729 796.074 79.032 C 803.930 76.576, 809.377 73.536, 813.584 69.258 C 822.169 60.531, 825.431 45.521, 820.987 35.193 C 817.064 26.071, 806.660 18.547, 793.769 15.508 C 788.738 14.321, 779.205 14.040, 745.500 14.082 C 717.229 14.118, 702.757 14.493, 701.228 15.230 M 852.704 15.774 C 850.364 18.360, 850.564 21.277, 853.532 27.893 L 856.065 33.536 842.631 80.984 C 827.842 133.216, 829.941 128.151, 819.627 136.500 C 816.070 139.380, 815.458 142.458, 817.949 144.949 C 819.861 146.861, 821.188 147, 837.500 147 C 853.667 147, 855.152 146.848, 857 145 C 859.675 142.325, 859.521 140.231, 856.300 135.491 C 854.754 133.215, 853.600 130.147, 853.600 128.310 C 853.600 125.011, 870.103 65.978, 871 66.069 C 871.275 66.097, 874.761 72.955, 878.746 81.310 C 907.390 141.354, 908.370 143.039, 916.681 146.511 C 925.244 150.089, 936.872 147.180, 941.395 140.329 C 944.926 134.979, 945.624 132.778, 959.088 84.500 C 974.809 28.131, 973.016 33.051, 980.067 26.942 C 986.320 21.525, 987.446 18.589, 984.429 15.571 C 983.124 14.267, 980.021 14.003, 966.179 14.015 C 948.198 14.031, 944.752 14.789, 944.170 18.856 C 943.981 20.176, 944.993 22.826, 946.538 25.055 C 948.381 27.714, 949.219 30.179, 949.183 32.828 C 949.133 36.453, 944.964 52.102, 937.820 75.484 L 934.769 85.469 918.589 53.208 C 908.452 32.997, 901.205 19.743, 899.187 17.723 L 895.966 14.500 875.187 14.196 C 855.889 13.913, 854.287 14.025, 852.704 15.774 M 608.967 32.250 C 600.383 36.584, 594.024 49.270, 585.466 79.133 C 577.549 106.756, 575.343 121.269, 578.130 127.385 C 580.454 132.487, 589.219 133.333, 594.743 128.988 C 603.565 122.048, 613.921 96.301, 621.486 62.500 C 625.862 42.945, 625.237 33.796, 619.343 31.110 C 615.837 29.513, 613.985 29.716, 608.967 32.250 M 747.124 51.479 C 744.856 60.543, 743 68.464, 743 69.082 C 743 69.851, 745.604 70.094, 751.250 69.853 C 761.117 69.431, 763.818 67.873, 767.471 60.500 C 771.073 53.230, 772.440 45.863, 770.997 41.492 C 769.453 36.812, 765.733 35, 757.674 35 L 751.248 35 747.124 51.479" stroke="none" fill="#fc8c7b" fill-rule="evenodd"/></svg>